<?xml version="1.0" encoding="UTF-8"?>
<svg xmlns="http://www.w3.org/2000/svg" viewBox="0 0 100 100">
  <rect x="0" y="0" width="100" height="100" rx="22.00" ry="22.00" fill="#ECB139"/>
  <g transform="matrix(1 0 0 -1 0 0)">
    <path fill="#1A1A1A" d="M39.275 -74.18571428571428Q39.275 -74.30357142857143 39.176785714285714 -74.40178571428572Q39.07857142857143 -74.5 38.88214285714285 -74.5H23.796428571428567Q23.599999999999998 -74.5 23.50178571428571 -74.40178571428572Q23.403571428571425 -74.30357142857143 23.403571428571425 -74.18571428571428Q23.403571428571425 -73.95 23.874999999999996 -73.79285714285714L24.660714285714285 -73.55714285714285Q27.21428571428571 -72.77142857142857 29.041071428571428 -70.86607142857143Q30.86785714285714 -68.96071428571429 30.86785714285714 -65.58214285714286V-29.164285714285704Q30.86785714285714 -28.692857142857136 30.828571428571426 -28.476785714285707Q30.78928571428571 -28.26071428571428 30.474999999999998 -27.749999999999993L26.703571428571426 -20.914285714285704Q26.507142857142853 -20.521428571428565 26.25178571428571 -20.167857142857134Q25.99642857142857 -19.814285714285703 25.99642857142857 -19.65714285714285Q25.99642857142857 -19.578571428571422 26.074999999999996 -19.539285714285707Q26.153571428571425 -19.499999999999993 26.389285714285712 -19.499999999999993H44.775Q44.971428571428575 -19.499999999999993 45.14821428571429 -19.617857142857137Q45.325 -19.73571428571428 45.48214285714286 -20.04999999999999L68.97500000000001 -65.77857142857142L68.18928571428572 -67.66428571428571V-28.417857142857137Q68.18928571428572 -25.039285714285704 66.38214285714287 -23.114285714285703Q64.575 -21.189285714285703 61.98214285714286 -20.442857142857136L61.19642857142857 -20.20714285714285Q60.72500000000001 -20.04999999999999 60.72500000000001 -19.814285714285703Q60.72500000000001 -19.696428571428562 60.82321428571429 -19.598214285714278Q60.92142857142858 -19.499999999999993 61.11785714285715 -19.499999999999993H76.20357142857144Q76.4 -19.499999999999993 76.49821428571428 -19.598214285714278Q76.59642857142858 -19.696428571428562 76.59642857142858 -19.814285714285703Q76.59642857142858 -20.04999999999999 76.125 -20.20714285714285L75.33928571428572 -20.442857142857136Q72.78571428571429 -21.189285714285703 70.95892857142857 -23.114285714285703Q69.13214285714287 -25.039285714285704 69.13214285714287 -28.417857142857137V-65.38571428571429Q69.13214285714287 -65.89642857142857 69.28928571428571 -66.30892857142857Q69.44642857142857 -66.72142857142858 69.60357142857143 -67.03571428571428L72.58928571428572 -72.22142857142858Q73.13928571428572 -73.20357142857142 73.29642857142858 -73.59642857142856Q73.45357142857144 -73.98928571428571 73.45357142857144 -74.18571428571428Q73.45357142857144 -74.30357142857143 73.33571428571429 -74.40178571428572Q73.21785714285714 -74.5 72.90357142857144 -74.5H55.69642857142857Q55.14642857142857 -74.5 55.14642857142857 -73.87142857142857Q55.14642857142857 -73.63571428571429 55.02857142857143 -73.18392857142857Q54.91071428571429 -72.73214285714286 54.75357142857143 -72.45714285714286L29.453571428571426 -25.23571428571428H31.810714285714283V-65.62142857142857Q31.810714285714283 -68.96071428571429 33.65714285714286 -70.86607142857143Q35.503571428571426 -72.77142857142857 38.01785714285714 -73.55714285714285L38.80357142857143 -73.79285714285714Q39.275 -73.95 39.275 -74.18571428571428Z"/>
  </g>
</svg>
